<?xml version="1.0" encoding="UTF-8"?>
<!-- Generated by Pixelmator Pro 3.6.12 -->
<svg width="180" height="180" viewBox="0 0 180 180" xmlns="http://www.w3.org/2000/svg">
    <path id="student" fill="#000000" stroke="none" d="M 160.24501 31.523132 L 91.355484 10.030258 C 90.17701 9.662567 88.902901 9.662567 87.724426 10.030258 L 18.834906 31.523132 C 16.490616 32.254593 14.909454 34.308075 14.909638 36.620972 L 14.909638 90.353127 C 14.909638 93.320671 17.479879 95.726349 20.650433 95.726349 C 23.820986 95.726349 26.391226 93.320671 26.391226 90.353127 L 26.391226 44.076309 L 50.49538 51.592087 C 37.160534 71.756081 43.791233 98.21859 65.313805 110.731049 C 52.397022 115.472916 41.231178 124.049911 33.064899 135.776962 C 31.909039 137.384872 31.767834 139.450775 32.695362 141.183441 C 33.622887 142.916107 35.475414 144.047028 37.54343 144.143066 C 39.611454 144.23912 41.574493 143.2854 42.680729 141.647186 C 53.494946 126.118599 70.573807 117.219208 89.539955 117.219208 C 108.506096 117.219208 125.584961 126.118599 136.399185 141.647186 C 138.151215 144.084457 141.669678 144.753021 144.298462 143.148209 C 146.927246 141.543396 147.691833 138.260132 146.015015 135.776962 C 137.84874 124.049911 126.639832 115.472916 113.766098 110.731049 C 135.266815 98.219826 141.894943 71.782608 128.584534 51.625671 L 160.24501 41.752396 C 162.589798 41.021347 164.171555 38.967758 164.171555 36.654556 C 164.171555 34.341339 162.589798 32.28775 160.24501 31.556717 Z M 123.984718 74.233482 C 123.988953 88.227066 114.34787 100.625351 100.119705 104.9235 C 85.891548 109.221649 70.3256 104.438087 61.588646 93.082535 C 52.851696 81.726982 52.938999 66.392738 61.804745 55.124977 L 87.724426 63.184807 C 88.902901 63.552505 90.17701 63.552505 91.355484 63.184807 L 117.275162 55.124977 C 121.636642 60.65937 123.988182 67.356422 123.984718 74.233482 Z M 89.539955 52.451805 L 38.805691 36.620972 L 89.539955 20.790131 L 140.274216 36.620972 Z"/>
    <g id="Group">
        <linearGradient id="linearGradient1" x1="130.251737" y1="89.545683" x2="130.251737" y2="159.334885" gradientUnits="userSpaceOnUse">
            <stop offset="1e-05" stop-color="#faf000" stop-opacity="1"/>
            <stop offset="0.484391" stop-color="#fbb910" stop-opacity="1"/>
            <stop offset="1" stop-color="#d05c29" stop-opacity="1"/>
        </linearGradient>
        <path id="Path" fill="url(#linearGradient1)" fill-rule="evenodd" stroke="none" d="M 96.327103 160.393768 C 88.872055 152.003494 85.113914 142.17099 85.052711 130.897263 C 85.102592 118.593254 89.587448 107.983368 98.507271 99.067589 C 107.427101 90.151848 118.012703 85.698189 130.264023 85.706596 C 141.596222 85.714386 151.46228 89.441872 159.86084 96.88903 L 148.106033 108.638634 C 143.021667 104.434761 137.195023 102.330528 130.625504 102.32605 C 123.041344 102.320808 116.334305 105.231903 110.504326 111.059158 C 104.674347 116.886475 101.762009 123.590446 101.767204 131.171127 C 101.82222 137.68718 103.956001 143.482712 108.16861 148.557617 L 96.327103 160.393768 Z"/>
        <linearGradient id="linearGradient2" x1="166.353154" y1="105.900107" x2="123.910701" y2="162.599466" gradientUnits="userSpaceOnUse">
            <stop offset="1e-05" stop-color="#c7115d" stop-opacity="1"/>
            <stop offset="1" stop-color="#d05b28" stop-opacity="1"/>
        </linearGradient>
        <path id="path1" fill="url(#linearGradient2)" fill-rule="evenodd" stroke="none" d="M 112.666252 153.036728 L 100.821739 164.87561 C 109.195702 172.272522 119.001221 176.001297 130.238678 176.062454 C 142.60643 176.071182 153.250504 171.617203 162.170273 162.701584 C 171.090042 153.785965 175.516602 143.175812 175.449951 130.871857 C 175.442291 119.586395 171.740753 109.756439 164.344757 101.38163 L 152.58667 113.134392 C 156.740051 118.193459 158.81839 123.985382 158.822769 130.510559 C 158.828217 138.091248 155.915619 144.794983 150.086014 150.622421 C 144.255875 156.449844 137.548782 159.361099 129.96463 159.355637 C 123.486618 159.301025 117.720619 157.194717 112.666252 153.036728 Z"/>
    </g>
</svg>
